<mxfile host="app.diagrams.net" agent="Mozilla/5.0 (Macintosh; Intel Mac OS X 10_15_7) AppleWebKit/605.1.15 (KHTML, like Gecko) Version/18.6 Safari/605.1.15" version="28.1.1">
  <diagram name="SOHO_Network_Diagram" id="f1jyXCz8j77_JTLHm1K7">
    <mxGraphModel dx="872" dy="743" grid="1" gridSize="10" guides="1" tooltips="1" connect="1" arrows="1" fold="1" page="1" pageScale="1" pageWidth="850" pageHeight="1100" background="light-dark(#FFFFFF,#000000)" math="0" shadow="0">
      <root>
        <mxCell id="0" />
        <mxCell id="1" parent="0" />
        <mxCell id="oZtGOqy6ybYVbeEz0A0h-1" value="Cloud Storage" style="ellipse;whiteSpace=wrap;html=1;fillColor=#0050ef;fontColor=light-dark(#FFFFFF,#000044);strokeColor=#001DBC;fontStyle=1;fontSize=21;fontFamily=Courier New;" parent="1" vertex="1">
          <mxGeometry x="280" y="10" width="240" height="80" as="geometry" />
        </mxCell>
        <mxCell id="oZtGOqy6ybYVbeEz0A0h-2" value="" style="endArrow=classic;html=1;rounded=0;exitX=0.5;exitY=1;exitDx=0;exitDy=0;entryX=0.5;entryY=0;entryDx=0;entryDy=0;entryPerimeter=0;" parent="1" source="oZtGOqy6ybYVbeEz0A0h-1" target="oZtGOqy6ybYVbeEz0A0h-3" edge="1">
          <mxGeometry width="50" height="50" relative="1" as="geometry">
            <mxPoint x="400" y="100" as="sourcePoint" />
            <mxPoint x="399.5" y="220" as="targetPoint" />
          </mxGeometry>
        </mxCell>
        <mxCell id="oZtGOqy6ybYVbeEz0A0h-3" value="Router" style="rounded=0;whiteSpace=wrap;html=1;fillColor=#1ba1e2;fontColor=light-dark(#FFFFFF,#000044);strokeColor=#006EAF;fontStyle=5;fontSize=36;fontFamily=Courier New;labelBackgroundColor=none;" parent="1" vertex="1">
          <mxGeometry x="295" y="230" width="210" height="60" as="geometry" />
        </mxCell>
        <mxCell id="oZtGOqy6ybYVbeEz0A0h-6" value="" style="endArrow=classic;html=1;rounded=0;" parent="1" edge="1">
          <mxGeometry width="50" height="50" relative="1" as="geometry">
            <mxPoint x="399.63" y="290" as="sourcePoint" />
            <mxPoint x="400" y="400" as="targetPoint" />
          </mxGeometry>
        </mxCell>
        <mxCell id="oZtGOqy6ybYVbeEz0A0h-8" value="Switch" style="shape=hexagon;perimeter=hexagonPerimeter2;whiteSpace=wrap;html=1;fixedSize=1;fillColor=#b1ddf0;strokeColor=#10739e;fontStyle=1;fontSize=21;fontFamily=Courier New;fontColor=light-dark(#FFFFFF,#000044);" parent="1" vertex="1">
          <mxGeometry x="280" y="400" width="240" height="80" as="geometry" />
        </mxCell>
        <mxCell id="oZtGOqy6ybYVbeEz0A0h-9" value="Desktop" style="rhombus;whiteSpace=wrap;html=1;fillColor=#d5e8d4;strokeColor=#82b366;gradientColor=#97d077;fontStyle=1;fontSize=21;fontFamily=Courier New;fontColor=light-dark(#FFFFFF,#000044);" parent="1" vertex="1">
          <mxGeometry x="170" y="550" width="125" height="100" as="geometry" />
        </mxCell>
        <mxCell id="oZtGOqy6ybYVbeEz0A0h-10" value="Printer" style="rhombus;whiteSpace=wrap;html=1;fillColor=#fff2cc;gradientColor=#ffd966;strokeColor=#d6b656;fontStyle=1;fontSize=21;fontFamily=Courier New;fontColor=light-dark(#FFFFFF,#000044);" parent="1" vertex="1">
          <mxGeometry x="330" y="550" width="140" height="100" as="geometry" />
        </mxCell>
        <mxCell id="oZtGOqy6ybYVbeEz0A0h-11" value="NAS" style="rhombus;whiteSpace=wrap;html=1;fillColor=#f8cecc;gradientColor=#ea6b66;strokeColor=#b85450;fontStyle=1;fontSize=21;fontFamily=Courier New;fontColor=light-dark(#FFFFFF,#000044);" parent="1" vertex="1">
          <mxGeometry x="500" y="550" width="120" height="100" as="geometry" />
        </mxCell>
        <mxCell id="zuVl2yUO0lz9OO7izSzA-1" value="" style="endArrow=classic;html=1;rounded=0;entryX=0.5;entryY=0;entryDx=0;entryDy=0;exitX=0.375;exitY=1;exitDx=0;exitDy=0;" parent="1" source="oZtGOqy6ybYVbeEz0A0h-8" target="oZtGOqy6ybYVbeEz0A0h-9" edge="1">
          <mxGeometry width="50" height="50" relative="1" as="geometry">
            <mxPoint x="400" y="410" as="sourcePoint" />
            <mxPoint x="450" y="360" as="targetPoint" />
          </mxGeometry>
        </mxCell>
        <mxCell id="rQ15lWNI6rLiy8nBYULt-1" value="" style="endArrow=classic;html=1;rounded=0;entryX=0.5;entryY=0;entryDx=0;entryDy=0;exitX=0.5;exitY=1;exitDx=0;exitDy=0;" parent="1" source="oZtGOqy6ybYVbeEz0A0h-8" target="oZtGOqy6ybYVbeEz0A0h-10" edge="1">
          <mxGeometry width="50" height="50" relative="1" as="geometry">
            <mxPoint x="400" y="480" as="sourcePoint" />
            <mxPoint x="480" y="610" as="targetPoint" />
          </mxGeometry>
        </mxCell>
        <mxCell id="rQ15lWNI6rLiy8nBYULt-2" value="" style="endArrow=classic;html=1;rounded=0;entryX=0.5;entryY=0;entryDx=0;entryDy=0;exitX=0.583;exitY=1;exitDx=0;exitDy=0;exitPerimeter=0;" parent="1" source="oZtGOqy6ybYVbeEz0A0h-8" target="oZtGOqy6ybYVbeEz0A0h-11" edge="1">
          <mxGeometry width="50" height="50" relative="1" as="geometry">
            <mxPoint x="450" y="350" as="sourcePoint" />
            <mxPoint x="500" y="300" as="targetPoint" />
          </mxGeometry>
        </mxCell>
        <mxCell id="rQ15lWNI6rLiy8nBYULt-3" value="Laptop (WiFi)" style="ellipse;shape=cloud;whiteSpace=wrap;html=1;fillColor=#ffff88;strokeColor=#36393d;fontStyle=1;fontSize=19;fontFamily=Courier New;fontColor=light-dark(#FFFFFF,#4B54DA);" parent="1" vertex="1">
          <mxGeometry x="605" y="70" width="220" height="130" as="geometry" />
        </mxCell>
        <mxCell id="rQ15lWNI6rLiy8nBYULt-4" value="Phone (WiFi)" style="ellipse;shape=cloud;whiteSpace=wrap;html=1;fillColor=#e1d5e7;strokeColor=#9673a6;fontStyle=1;fontSize=19;fontFamily=Courier New;fontColor=light-dark(#FFFFFF,#4B54DA);" parent="1" vertex="1">
          <mxGeometry x="600" y="290" width="230" height="120" as="geometry" />
        </mxCell>
        <mxCell id="rQ15lWNI6rLiy8nBYULt-5" value="" style="endArrow=none;dashed=1;html=1;rounded=0;entryX=0.13;entryY=0.77;entryDx=0;entryDy=0;entryPerimeter=0;exitX=1;exitY=0;exitDx=0;exitDy=0;" parent="1" source="oZtGOqy6ybYVbeEz0A0h-3" target="rQ15lWNI6rLiy8nBYULt-3" edge="1">
          <mxGeometry width="50" height="50" relative="1" as="geometry">
            <mxPoint x="520" y="220" as="sourcePoint" />
            <mxPoint x="510" y="230" as="targetPoint" />
          </mxGeometry>
        </mxCell>
        <mxCell id="rQ15lWNI6rLiy8nBYULt-6" value="" style="endArrow=none;dashed=1;html=1;rounded=0;entryX=0.07;entryY=0.4;entryDx=0;entryDy=0;entryPerimeter=0;exitX=1;exitY=1;exitDx=0;exitDy=0;" parent="1" source="oZtGOqy6ybYVbeEz0A0h-3" target="rQ15lWNI6rLiy8nBYULt-4" edge="1">
          <mxGeometry width="50" height="50" relative="1" as="geometry">
            <mxPoint x="510" y="290" as="sourcePoint" />
            <mxPoint x="510" y="230" as="targetPoint" />
          </mxGeometry>
        </mxCell>
      </root>
    </mxGraphModel>
  </diagram>
</mxfile>
